<svg width="54" height="51" viewBox="0 0 54 51" fill="none" xmlns="http://www.w3.org/2000/svg">
<g filter="url(#filter0_d_80_144)">
<path d="M24.0979 1.8541C24.6966 0.0114777 27.3034 0.0114809 27.9021 1.8541L32.5109 16.0385C32.7787 16.8626 33.5466 17.4205 34.413 17.4205H49.3274C51.2648 17.4205 52.0704 19.8997 50.503 21.0385L38.437 29.805C37.736 30.3142 37.4427 31.217 37.7104 32.041L42.3192 46.2254C42.9179 48.0681 40.809 49.6003 39.2415 48.4615L27.1756 39.695C26.4746 39.1858 25.5254 39.1858 24.8244 39.695L12.7585 48.4615C11.191 49.6003 9.08207 48.068 9.68077 46.2254L14.2896 32.041C14.5573 31.217 14.264 30.3142 13.563 29.805L1.49704 21.0385C-0.0703853 19.8997 0.735169 17.4205 2.67262 17.4205H17.587C18.4534 17.4205 19.2213 16.8626 19.4891 16.0385L24.0979 1.8541Z" fill="#F85D7B"/>
<path d="M27.4266 2.00861L32.0354 16.193C32.3701 17.2231 33.33 17.9205 34.413 17.9205H49.3274C50.7805 17.9205 51.3846 19.7799 50.2091 20.634L38.1431 29.4004C37.2669 30.0371 36.9002 31.1655 37.2349 32.1955L41.8437 46.3799C42.2927 47.7619 40.711 48.9111 39.5354 48.057L27.4695 39.2905C26.5932 38.6539 25.4068 38.6539 24.5305 39.2905L12.4646 48.057C11.289 48.9111 9.70727 47.7619 10.1563 46.3799L14.7651 32.1955C15.0998 31.1655 14.7331 30.0371 13.8569 29.4004L1.79093 20.634C0.615366 19.7799 1.21953 17.9205 2.67262 17.9205H17.587C18.67 17.9205 19.6299 17.2231 19.9646 16.193L24.5734 2.00861C25.0224 0.626644 26.9776 0.626643 27.4266 2.00861Z" stroke="black"/>
</g>
<defs>
<filter id="filter0_d_80_144" x="0.668823" y="0.472168" width="52.6624" height="50.3804" filterUnits="userSpaceOnUse" color-interpolation-filters="sRGB">
<feFlood flood-opacity="0" result="BackgroundImageFix"/>
<feColorMatrix in="SourceAlpha" type="matrix" values="0 0 0 0 0 0 0 0 0 0 0 0 0 0 0 0 0 0 127 0" result="hardAlpha"/>
<feOffset dx="2" dy="2"/>
<feComposite in2="hardAlpha" operator="out"/>
<feColorMatrix type="matrix" values="0 0 0 0 0 0 0 0 0 0 0 0 0 0 0 0 0 0 1 0"/>
<feBlend mode="normal" in2="BackgroundImageFix" result="effect1_dropShadow_80_144"/>
<feBlend mode="normal" in="SourceGraphic" in2="effect1_dropShadow_80_144" result="shape"/>
</filter>
</defs>
</svg>
