<svg width="40" height="40" viewBox="0 0 40 40" fill="none" xmlns="http://www.w3.org/2000/svg">
<mask id="mask0_61_110" style="mask-type:alpha" maskUnits="userSpaceOnUse" x="0" y="0" width="40" height="40">
<rect width="40" height="40" fill="#D9D9D9"/>
</mask>
<g mask="url(#mask0_61_110)">
<path d="M19.972 36.6112C17.9073 36.6112 15.9652 36.22 14.1458 35.4375C12.3263 34.655 10.743 33.5901 9.39576 32.2429C8.04853 30.8957 6.97909 29.3123 6.18742 27.4929C5.39576 25.6735 4.99992 23.7246 4.99992 21.6462C4.99992 19.5679 5.39576 17.6211 6.18742 15.8058C6.97909 13.9908 8.04853 12.4051 9.39576 11.0487C10.743 9.69207 12.3263 8.62262 14.1458 7.8404C15.9652 7.0579 17.9073 6.66665 19.972 6.66665C22.037 6.66665 23.9792 7.0579 25.7987 7.8404C27.6181 8.62262 29.206 9.69207 30.5624 11.0487C31.9188 12.4051 32.9883 13.9908 33.7708 15.8058C34.5533 17.6211 34.9445 19.5679 34.9445 21.6462C34.9445 23.7246 34.5533 25.6735 33.7708 27.4929C32.9883 29.3123 31.9188 30.8957 30.5624 32.2429C29.206 33.5901 27.6181 34.655 25.7987 35.4375C23.9792 36.22 22.037 36.6112 19.972 36.6112ZM24.8887 28.5L26.8333 26.5554L21.4445 21.1666V13.3333H18.6666V22.2779L24.8887 28.5ZM9.05534 3.88873L10.9999 5.83332L4.08326 12.5833L2.13867 10.6387L9.05534 3.88873ZM30.8887 3.88873L37.8053 10.6387L35.8612 12.5833L28.9445 5.83332L30.8887 3.88873ZM19.9733 33.8333C23.3708 33.8333 26.2523 32.6501 28.6178 30.2837C30.9837 27.9171 32.1666 25.035 32.1666 21.6375C32.1666 18.2403 30.9834 15.3587 28.617 12.9929C26.2503 10.6273 23.3683 9.44456 19.9708 9.44456C16.5735 9.44456 13.692 10.6278 11.3262 12.9941C8.96062 15.3608 7.77784 18.2428 7.77784 21.64C7.77784 25.0375 8.96103 27.919 11.3274 30.2846C13.6941 32.6504 16.576 33.8333 19.9733 33.8333Z" fill="#1C1B1F"/>
</g>
</svg>
