<svg width="271" height="172" viewBox="0 0 271 172" fill="none" xmlns="http://www.w3.org/2000/svg">
<g filter="url(#filter0_d_80_134)">
<path d="M190.046 29.029C191.842 23.5011 199.663 23.5011 201.459 29.029L211.139 58.822C211.942 61.2942 214.246 62.9679 216.845 62.9679H248.172C253.984 62.9679 256.401 70.4056 251.698 73.822L226.355 92.2352C224.252 93.763 223.372 96.4712 224.175 98.9434L233.856 128.736C235.652 134.264 229.325 138.861 224.623 135.445L199.279 117.032C197.176 115.504 194.329 115.504 192.226 117.032L166.882 135.445C162.18 138.861 155.853 134.264 157.649 128.736L167.329 98.9434C168.133 96.4712 167.253 93.763 165.15 92.2352L139.806 73.822C135.104 70.4056 137.521 62.9679 143.333 62.9679H174.659C177.259 62.9679 179.562 61.2942 180.366 58.822L190.046 29.029Z" fill="#F5F378"/>
<path d="M200.983 29.1835L210.663 58.9765C211.534 61.6547 214.029 63.4679 216.845 63.4679H248.172C253.5 63.4679 255.715 70.2858 251.404 73.4175L226.061 91.8307C223.783 93.4858 222.83 96.4197 223.7 99.0979L233.38 128.891C235.026 133.958 229.227 138.172 224.916 135.04L199.573 116.627C197.295 114.972 194.21 114.972 191.932 116.627L166.588 135.04C162.278 138.172 156.478 133.958 158.125 128.891L167.805 99.0979C168.675 96.4197 167.722 93.4858 165.444 91.8307L140.1 73.4175C135.79 70.2858 138.005 63.4679 143.333 63.4679H174.659C177.475 63.4679 179.971 61.6547 180.841 58.9766L190.522 29.1835C192.168 24.1163 199.337 24.1163 200.983 29.1835Z" stroke="black"/>
</g>
<g filter="url(#filter1_d_80_134)">
<path d="M68.827 29.029C70.6231 23.5011 78.4436 23.5011 80.2397 29.029L89.92 58.822C90.7233 61.2942 93.027 62.9679 95.6264 62.9679H126.953C132.765 62.9679 135.182 70.4056 130.479 73.822L105.136 92.2352C103.033 93.763 102.153 96.4712 102.956 98.9434L112.637 128.736C114.433 134.264 108.106 138.861 103.404 135.445L78.06 117.032C75.9571 115.504 73.1095 115.504 71.0066 117.032L45.6631 135.445C40.9609 138.861 34.634 134.264 36.4301 128.736L46.1104 98.9434C46.9137 96.4712 46.0337 93.763 43.9308 92.2352L18.5873 73.822C13.885 70.4056 16.3017 62.9679 22.114 62.9679H53.4403C56.0397 62.9679 58.3434 61.2942 59.1466 58.822L68.827 29.029Z" fill="#F5F378"/>
<path d="M79.7641 29.1835L89.4445 58.9765C90.3147 61.6547 92.8104 63.4679 95.6264 63.4679H126.953C132.281 63.4679 134.496 70.2858 130.185 73.4175L104.842 91.8307C102.564 93.4858 101.611 96.4197 102.481 99.0979L112.161 128.891C113.807 133.958 108.008 138.172 103.697 135.04L78.3539 116.627C76.0758 114.972 72.9909 114.972 70.7127 116.627L45.3692 135.04C41.0588 138.172 35.2592 133.958 36.9056 128.891L46.586 99.0979C47.4561 96.4197 46.5029 93.4858 44.2247 91.8307L18.8812 73.4175C14.5708 70.2858 16.786 63.4679 22.114 63.4679H53.4403C56.2563 63.4679 58.752 61.6547 59.6222 58.9766L69.3025 29.1835C70.949 24.1163 78.1177 24.1163 79.7641 29.1835Z" stroke="black"/>
</g>
<g filter="url(#filter2_d_80_134)">
<path d="M125.336 17.7473C127.122 12.1981 134.973 12.1981 136.759 17.7472L148.833 55.2626C149.631 57.7429 151.939 59.4245 154.544 59.4245H193.736C199.534 59.4245 201.96 66.8329 197.284 70.2625L165.479 93.5925C163.396 95.1203 162.525 97.8097 163.317 100.269L175.442 137.945C177.224 143.483 170.872 148.062 166.181 144.621L134.596 121.452C132.484 119.903 129.611 119.903 127.499 121.452L95.9139 144.621C91.2229 148.062 84.8713 143.483 86.6536 137.945L98.7787 100.269C99.57 97.8097 98.6988 95.1203 96.616 93.5925L64.8109 70.2625C60.1354 66.8329 62.5613 59.4245 68.3597 59.4245H107.551C110.157 59.4245 112.465 57.7429 113.263 55.2626L125.336 17.7473Z" fill="#F5F378"/>
<path d="M136.283 17.9004L148.357 55.4158C149.221 58.1028 151.721 59.9245 154.544 59.9245H193.736C199.051 59.9245 201.275 66.7156 196.989 69.8594L165.184 93.1893C162.927 94.8444 161.983 97.7579 162.841 100.422L174.966 138.098C176.599 143.174 170.777 147.372 166.477 144.218L134.892 121.049C132.604 119.371 129.491 119.371 127.203 121.049L95.6182 144.218C91.3181 147.372 85.4958 143.174 87.1296 138.098L99.2547 100.422C100.112 97.7579 99.1681 94.8444 96.9117 93.1893L65.1066 69.8593C60.8208 66.7156 63.0445 59.9245 68.3597 59.9245H107.551C110.374 59.9245 112.874 58.1028 113.739 55.4158L125.812 17.9004C127.449 12.8137 134.646 12.8137 136.283 17.9004Z" stroke="black"/>
</g>
<defs>
<filter id="filter0_d_80_134" x="137.322" y="24.8831" width="118.862" height="119.735" filterUnits="userSpaceOnUse" color-interpolation-filters="sRGB">
<feFlood flood-opacity="0" result="BackgroundImageFix"/>
<feColorMatrix in="SourceAlpha" type="matrix" values="0 0 0 0 0 0 0 0 0 0 0 0 0 0 0 0 0 0 127 0" result="hardAlpha"/>
<feOffset dx="2" dy="8"/>
<feComposite in2="hardAlpha" operator="out"/>
<feColorMatrix type="matrix" values="0 0 0 0 0 0 0 0 0 0 0 0 0 0 0 0 0 0 1 0"/>
<feBlend mode="normal" in2="BackgroundImageFix" result="effect1_dropShadow_80_134"/>
<feBlend mode="normal" in="SourceGraphic" in2="effect1_dropShadow_80_134" result="shape"/>
</filter>
<filter id="filter1_d_80_134" x="16.1025" y="24.8831" width="118.862" height="119.735" filterUnits="userSpaceOnUse" color-interpolation-filters="sRGB">
<feFlood flood-opacity="0" result="BackgroundImageFix"/>
<feColorMatrix in="SourceAlpha" type="matrix" values="0 0 0 0 0 0 0 0 0 0 0 0 0 0 0 0 0 0 127 0" result="hardAlpha"/>
<feOffset dx="2" dy="8"/>
<feComposite in2="hardAlpha" operator="out"/>
<feColorMatrix type="matrix" values="0 0 0 0 0 0 0 0 0 0 0 0 0 0 0 0 0 0 1 0"/>
<feBlend mode="normal" in2="BackgroundImageFix" result="effect1_dropShadow_80_134"/>
<feBlend mode="normal" in="SourceGraphic" in2="effect1_dropShadow_80_134" result="shape"/>
</filter>
<filter id="filter2_d_80_134" x="62.3481" y="13.5853" width="139.399" height="140.225" filterUnits="userSpaceOnUse" color-interpolation-filters="sRGB">
<feFlood flood-opacity="0" result="BackgroundImageFix"/>
<feColorMatrix in="SourceAlpha" type="matrix" values="0 0 0 0 0 0 0 0 0 0 0 0 0 0 0 0 0 0 127 0" result="hardAlpha"/>
<feOffset dx="2" dy="8"/>
<feComposite in2="hardAlpha" operator="out"/>
<feColorMatrix type="matrix" values="0 0 0 0 0 0 0 0 0 0 0 0 0 0 0 0 0 0 1 0"/>
<feBlend mode="normal" in2="BackgroundImageFix" result="effect1_dropShadow_80_134"/>
<feBlend mode="normal" in="SourceGraphic" in2="effect1_dropShadow_80_134" result="shape"/>
</filter>
</defs>
</svg>
