<svg width="189" height="202" viewBox="0 0 189 202" fill="none" xmlns="http://www.w3.org/2000/svg">
<g filter="url(#filter0_d_57_83)">
<path d="M3.97271 112.681C-8.71476 65.3304 19.385 16.6602 66.7353 3.97271C114.086 -8.71476 162.756 19.385 175.443 66.7353C188.131 114.086 160.031 162.756 112.681 175.443L36.6047 195.828C31.27 197.257 25.7866 194.091 24.3572 188.757L3.97271 112.681Z" fill="#DCC1FF"/>
<path d="M47.1801 118.537C47.4493 119.541 47.8278 120.413 48.3157 121.152C48.8318 121.842 49.4328 122.385 50.1187 122.781C50.8328 123.128 51.6563 123.342 52.5891 123.423L52.2717 126.179C49.9706 126.092 48.156 125.501 46.8277 124.408C45.4994 123.314 44.5351 121.647 43.9346 119.406L35.114 86.4874L38.3596 85.6178L41.4654 97.2089L48.478 95.3299L47.8946 98.7163L42.2729 100.223L47.1801 118.537Z" fill="black"/>
<path d="M69.0149 92.2496C69.0149 92.2496 68.7586 92.2976 68.246 92.3935C67.772 92.4791 67.2117 92.6292 66.5653 92.8439C65.7642 93.0999 64.926 93.4488 64.0504 93.8904C63.1645 94.2934 62.3187 94.7685 61.5129 95.3158C60.6967 95.8243 59.954 96.3753 59.2848 96.9687C58.6052 97.5235 58.0416 98.0473 57.5938 98.5399L63.9452 122.244L60.6418 123.129L52.8617 94.0932L56.1651 93.208L56.6776 95.1206C57.9312 94.0807 59.2493 93.127 60.6319 92.2596C62.0531 91.3819 63.7914 90.6055 65.8467 89.9306C66.5319 89.7056 67.1359 89.5644 67.6589 89.5071C68.2205 89.4394 68.5013 89.4056 68.5013 89.4056L69.0149 92.2496Z" fill="black"/>
<path d="M80.564 117.791L72.7839 88.755L76.0873 87.8699L83.8674 116.906L80.564 117.791ZM71.219 76.192C71.7599 76.047 72.2753 76.116 72.7652 76.3988C73.2551 76.6817 73.5725 77.0936 73.7175 77.6345C73.8521 78.1368 73.7779 78.6329 73.4951 79.1228C73.2123 79.6127 72.8004 79.9301 72.2595 80.075C71.7572 80.2096 71.2418 80.1406 70.7132 79.8682C70.2233 79.5853 69.9111 79.1927 69.7765 78.6905C69.6316 78.1495 69.7005 77.6341 69.9834 77.1442C70.3048 76.644 70.7167 76.3266 71.219 76.192Z" fill="black"/>
<path d="M80.1723 86.7753L83.5337 85.8746L98.2371 109.453L99.0658 81.7128L102.485 80.7966L101.282 112.239L96.8196 113.435L80.1723 86.7753Z" fill="black"/>
<path d="M114.522 108.692L106.742 79.6559L110.046 78.7708L117.826 107.807L114.522 108.692ZM105.177 67.0929C105.718 66.9479 106.234 67.0169 106.724 67.2997C107.213 67.5826 107.531 67.9945 107.676 68.5354C107.81 69.0377 107.736 69.5337 107.453 70.0236C107.171 70.5135 106.759 70.831 106.218 70.9759C105.715 71.1105 105.2 71.0415 104.672 70.769C104.182 70.4862 103.869 70.0936 103.735 69.5914C103.59 69.0504 103.659 68.535 103.942 68.0451C104.263 67.5449 104.675 67.2275 105.177 67.0929Z" fill="black"/>
<path d="M135.666 81.2855C135.283 79.856 134.721 78.7641 133.98 78.0101C133.279 77.2457 132.441 76.7455 131.466 76.5096C130.531 76.2634 129.501 76.2079 128.378 76.3433C127.245 76.44 126.098 76.6436 124.939 76.9542L124.387 74.431C126.744 73.7995 128.757 73.5085 130.427 73.5581C132.086 73.569 133.495 73.9576 134.653 74.7241C135.839 75.4415 136.848 76.5792 137.679 78.1371C138.501 79.6563 139.232 81.6137 139.874 84.0091L144.346 100.7C144.385 100.69 144.178 100.766 143.724 100.929C143.31 101.082 142.74 101.276 142.017 101.511C141.342 101.775 140.585 102.04 139.745 102.306C138.954 102.601 138.159 102.876 137.358 103.132C136.595 103.378 135.924 103.578 135.345 103.734C133.5 104.269 131.731 104.619 130.035 104.783C128.379 104.937 126.853 104.808 125.459 104.395C124.093 103.932 122.876 103.099 121.807 101.895C120.778 100.68 119.978 99.0096 119.409 96.8846L118.12 92.0743C117.685 90.4515 117.55 89.0178 117.713 87.7731C117.915 86.518 118.353 85.4482 119.027 84.5636C119.691 83.6404 120.503 82.8845 121.463 82.2958C122.462 81.6969 123.541 81.2421 124.7 80.9315C125.975 80.5898 127.253 80.4131 128.534 80.4013C129.804 80.3508 131.042 80.4124 132.248 80.5862C133.493 80.7496 134.632 80.9827 135.666 81.2855ZM136.395 84.0094C135.246 83.7377 134.03 83.5253 132.746 83.3722C131.463 83.2192 130.186 83.1679 128.916 83.2184C127.646 83.2688 126.392 83.4597 125.156 83.791C124.654 83.9256 124.114 84.153 123.537 84.4732C122.961 84.7934 122.439 85.2436 121.974 85.8239C121.498 86.3656 121.175 87.0939 121.006 88.0088C120.876 88.9133 120.987 90.0224 121.339 91.3361L122.488 95.6248C122.861 97.0157 123.322 98.1966 123.872 99.1673C124.461 100.128 125.196 100.862 126.078 101.372C126.988 101.832 128.122 102.045 129.479 102.013C130.827 101.942 132.456 101.609 134.367 101.014C135.13 100.768 135.815 100.543 136.423 100.339C137.069 100.124 137.638 99.9302 138.13 99.757C138.612 99.5452 139.027 99.3926 139.374 99.2995C139.712 99.1676 139.958 99.081 140.112 99.0396C140.295 98.9492 140.386 98.904 140.386 98.904L136.395 84.0094Z" fill="black"/>
</g>
<defs>
<filter id="filter0_d_57_83" x="0.92627" y="0.92627" width="187.563" height="200.245" filterUnits="userSpaceOnUse" color-interpolation-filters="sRGB">
<feFlood flood-opacity="0" result="BackgroundImageFix"/>
<feColorMatrix in="SourceAlpha" type="matrix" values="0 0 0 0 0 0 0 0 0 0 0 0 0 0 0 0 0 0 127 0" result="hardAlpha"/>
<feOffset dx="10" dy="5"/>
<feComposite in2="hardAlpha" operator="out"/>
<feColorMatrix type="matrix" values="0 0 0 0 0 0 0 0 0 0 0 0 0 0 0 0 0 0 1 0"/>
<feBlend mode="normal" in2="BackgroundImageFix" result="effect1_dropShadow_57_83"/>
<feBlend mode="normal" in="SourceGraphic" in2="effect1_dropShadow_57_83" result="shape"/>
</filter>
</defs>
</svg>
